<svg width="87" height="88" viewBox="0 0 87 88" fill="none" xmlns="http://www.w3.org/2000/svg">
<path d="M27.5372 5.37146C24.6103 2.16679 26.7913 0.456798 30.5204 0.21768C37.6909 -0.24207 44.2884 2.77828 48.2102 5.83892C50.7637 7.83154 51.498 10.2858 50.189 12.9844C49.1859 15.0524 46.4733 16.8435 42.8139 17.9632C37.8071 19.4953 30.8471 20.0823 27.9651 20.9234C27.8432 20.9587 27.6897 21.0216 27.5201 21.1042C28.5727 21.3187 29.8557 21.4423 31.2352 21.605C38.0757 22.4123 46.9871 22.3554 51.0488 23.2803C52.1406 23.5313 59.204 25.0604 61.3823 26.6485C63.2953 28.0431 63.7403 29.803 63.5332 31.251C63.275 33.0573 62.2357 34.5867 60.4365 35.6647C57.7213 37.2911 52.2396 37.5977 50.4038 37.9028C43.0462 39.0919 35.6876 39.7543 28.3711 40.8905C25.3475 41.3599 22.3304 41.9069 19.3251 42.6222C18.6771 42.7765 15.9082 43.2327 13.4996 44.0877C13.3319 44.1472 13.1488 44.2217 12.9637 44.3048C13.6724 44.6121 14.4859 44.7735 15.3216 44.8899C18.785 45.3711 22.7274 44.7969 25.4186 44.6795C32.9652 44.3426 40.5746 43.5722 48.1716 43.3571C53.4202 43.2081 58.6637 43.3116 63.8839 44.0279C66.9476 44.3812 75.0242 45.6358 80.0787 48.2379C84.0284 50.2713 86.1459 53.3318 86.0112 56.8134C85.9048 59.6049 84.006 62.04 81.0225 63.8975C76.8555 66.4915 70.1306 67.7826 67.562 68.1127C62.7249 68.6757 57.8149 68.9506 52.8691 68.8781C45.891 68.7761 38.884 68.0953 31.9704 68.4404C29.206 68.5786 26.4573 68.831 23.7344 69.317C22.3857 69.5652 17.6297 70.2434 13.5174 71.5703C12.3931 71.9334 11.364 72.8976 10.5135 73.4559C10.8209 73.6381 11.1572 73.8057 11.4774 73.9846C13.1971 74.9461 15.2055 75.5284 16.6429 75.8709C21.9031 77.122 26.4561 77.9062 31.0798 78.2361C35.6056 78.5588 40.1945 78.423 45.5838 77.899L58.227 77.5042C66.1495 77.0812 66.557 86.7425 59.0499 87.1787L46.6317 87.6735C40.6283 88.0683 35.5279 88.0347 30.5122 87.5301C25.4246 87.0181 20.424 86.0435 14.6612 84.5085C12.1517 83.8428 8.5055 82.546 5.76189 80.5674C3.16322 78.6936 1.3181 76.2503 0.858628 73.3873C0.443577 70.7999 1.67946 68.0485 4.93214 66.0044C9.58959 63.0777 19.5378 61.0396 21.7236 60.5648C26.3026 59.5107 30.9701 58.9958 35.6849 58.7572C41.9448 58.4403 48.2778 58.4602 54.5724 58.6202C58.5942 58.7222 62.5892 58.9906 66.5573 58.822C67.7892 58.7771 70.2638 58.5922 72.7743 58.0303C74.205 57.7098 75.6654 57.3298 76.8537 56.731C77.2417 56.5355 77.6167 56.3584 77.9109 56.114C78.4493 55.6662 77.8107 55.3996 77.375 54.9396C76.2609 54.138 74.8195 53.4586 73.2854 52.9052C69.4416 51.5186 65.1099 50.7916 63.1586 50.4892C58.3037 49.8291 53.426 49.7219 48.5474 49.8946C40.9941 50.1617 33.4409 51.0705 25.9418 51.501C22.3356 51.7117 16.7802 52.4991 12.3937 51.4173C9.73094 50.7605 7.44753 49.4617 5.81858 47.3793C3.80963 44.8126 4.17563 42.5382 5.74497 40.5463C6.55853 39.5138 7.97398 38.5382 9.69369 37.7798C12.6217 36.4888 16.5557 35.7315 17.3938 35.5175C20.5765 34.7048 23.7734 34.0633 26.9812 33.5165C33.8163 32.3515 40.6979 31.6233 47.5735 30.4769C42.4263 29.7569 33.4361 29.7542 27.4916 28.5744C24.3287 27.9464 21.8582 26.905 20.4925 25.659C18.0786 23.4564 17.9541 21.2476 18.6966 19.317C19.0849 18.3077 19.8184 17.3043 20.8503 16.4672C22.3306 15.2664 24.4599 14.3468 25.8429 13.9724C28.3876 13.2874 34.0281 12.8447 38.8091 11.805C40.3844 11.4624 42.9359 11.3503 43.0074 10.5219C43.079 9.69347 32.4977 7.37022 32.4977 7.37022C31.8801 7.24204 30.8896 7.09049 30.0446 6.82599C29.8146 6.78956 29.5772 6.7284 29.3341 6.63957C28.6863 6.40277 27.811 5.67106 27.5372 5.37146Z" fill="#C28426" fill-opacity="0.08"/>
</svg>
