<svg width="63" height="69" viewBox="0 0 63 69" fill="none" xmlns="http://www.w3.org/2000/svg">
<path d="M19.26 4.472H11.952V27.548H8.028V4.472H0.756V0.907999H19.26V4.472ZM33.8732 4.004C31.3772 4.004 29.4092 5.06 27.9692 7.172C26.6492 9.068 25.9892 11.42 25.9892 14.228C25.9892 17.06 26.6492 19.424 27.9692 21.32C29.4092 23.432 31.3772 24.488 33.8732 24.488C36.3692 24.488 38.3372 23.432 39.7772 21.32C41.0732 19.424 41.7212 17.06 41.7212 14.228C41.7212 11.444 41.0732 9.092 39.7772 7.172C38.3372 5.06 36.3692 4.004 33.8732 4.004ZM33.8732 0.368C37.7132 0.368 40.7012 1.796 42.8372 4.652C44.7332 7.196 45.6692 10.388 45.6452 14.228C45.5972 18.428 44.6132 21.74 42.6932 24.164C40.6052 26.804 37.6652 28.124 33.8732 28.124C30.1052 28.124 27.1532 26.804 25.0172 24.164C23.0492 21.692 22.0652 18.38 22.0652 14.228C22.0652 10.34 23.0012 7.136 24.8732 4.616C26.9852 1.784 29.9852 0.368 33.8732 0.368ZM7.344 62.84H8.64C15.936 62.84 19.584 59.576 19.584 53.048C19.584 46.736 16.464 43.58 10.224 43.58H7.344V62.84ZM3.42 39.908H10.224C14.736 39.908 18.132 41.156 20.412 43.652C22.452 45.908 23.472 49.076 23.472 53.156C23.472 57.764 22.008 61.208 19.08 63.488C16.512 65.528 12.948 66.548 8.388 66.548H3.42V39.908Z" fill="#454545"/>
<path d="M40.4123 43.004C37.9163 43.004 35.9483 44.06 34.5083 46.172C33.1883 48.068 32.5283 50.42 32.5283 53.228C32.5283 56.06 33.1883 58.424 34.5083 60.32C35.9483 62.432 37.9163 63.488 40.4123 63.488C42.9083 63.488 44.8763 62.432 46.3163 60.32C47.6123 58.424 48.2603 56.06 48.2603 53.228C48.2603 50.444 47.6123 48.092 46.3163 46.172C44.8763 44.06 42.9083 43.004 40.4123 43.004ZM40.4123 39.368C44.2523 39.368 47.2403 40.796 49.3763 43.652C51.2723 46.196 52.2083 49.388 52.1843 53.228C52.1363 57.428 51.1523 60.74 49.2323 63.164C47.1443 65.804 44.2043 67.124 40.4123 67.124C36.6443 67.124 33.6923 65.804 31.5563 63.164C29.5883 60.692 28.6043 57.38 28.6043 53.228C28.6043 49.34 29.5403 46.136 31.4123 43.616C33.5243 40.784 36.5243 39.368 40.4123 39.368ZM62.3762 68.96H57.9122V64.676H62.3762V68.96Z" fill="#C28426"/>
</svg>
