<svg width="391" height="202" viewBox="0 0 391 202" fill="none" xmlns="http://www.w3.org/2000/svg">
<path d="M171.951 44.2397H22.9156C22.1717 42.8384 21.7585 41.2852 21.7079 39.6992C21.6573 38.1133 21.9705 36.5368 22.6236 35.0909C23.2766 33.645 24.2521 32.3681 25.4751 31.3582C26.6981 30.3483 28.1361 29.6323 29.6787 29.2651C34.544 28.11 40.0436 30.4793 44.4789 28.1727C47.9203 26.3798 49.5104 22.334 50.2421 18.5249C50.9738 14.7159 51.1814 10.692 53.03 7.28054C56.1367 1.55379 63.5115 -1.0047 69.8813 0.360206C76.2511 1.72512 81.5397 6.3679 85.0219 11.8744C86.4539 14.1385 87.7552 16.6973 90.1161 17.961C92.8413 19.4187 96.2338 18.7239 99.0328 17.4187C101.832 16.1135 104.372 14.2366 107.304 13.2666C113.22 11.3075 120.294 13.6997 123.811 18.849C126.327 22.53 127.381 27.5977 131.331 29.6604C132.96 30.5103 134.846 30.6874 136.679 30.7309C143.992 30.9079 151.508 29.2024 158.506 31.3332C164.673 33.2108 169.762 38.1966 171.951 44.2397Z" fill="#D9D9D9"/>
<path d="M379.793 82.6364H262.099C262.765 78.3179 265.211 74.3154 268.948 72.3613C273.57 69.9436 279.187 70.6573 284.402 71.2811C289.617 71.9048 295.372 72.2551 299.652 69.3124C301.806 67.8318 303.329 65.6738 305.073 63.7536C310.057 58.2606 317.916 54.5029 325.207 56.4423C328.877 57.4184 332.008 59.7 335.487 61.1904C339.142 62.7489 343.138 63.4178 347.123 63.1386C351.232 62.8447 355.322 61.5476 359.398 62.1288C364.565 62.8717 368.798 66.5346 371.861 70.6222C374.764 74.4949 376.838 78.2501 379.793 82.6364Z" fill="#D9D9D9"/>
<path d="M12.5205 202H390.644C386.502 191.451 378.851 182.502 368.063 179.848C352.285 175.969 335.587 186.634 319.844 182.624C310.9 180.348 303.858 173.716 296.459 168.209C268.544 147.43 230.29 141.29 197.259 152.288C179.992 158.034 164.26 168.082 146.573 172.354C123.702 177.88 99.7836 173.297 76.263 172.542C53.3566 171.808 20.536 181.126 12.5205 202Z" fill="#D9D9D9"/>
<path d="M39.1597 63.3958C39.1597 63.3958 41.7603 62.0169 41.1795 54.9353L46.5527 53.9392C46.5527 53.9392 45.949 60.2883 48.667 62.3038L39.1597 63.3958Z" fill="#DFDFDF"/>
<g opacity="0.15">
<path d="M47.5663 60.9763L43.1025 57.5618L46.6082 57.5255C46.7097 58.7254 47.0347 59.8958 47.5663 60.9763Z" fill="black"/>
</g>
<path d="M38.1311 52.1894C38.5031 54.338 39.6754 56.3727 41.5705 57.0658C43.8204 57.8897 45.4868 57.9456 48.0807 57.9456C51.6203 57.9456 51.5033 54.2539 51.6025 50.5337C51.7034 46.7991 51.4054 42.7927 50.0064 41.4912C47.215 38.8935 39.0183 40.5384 38.0215 44.8835C37.5059 47.1313 37.777 50.143 38.1311 52.1894Z" fill="#DFDFDF"/>
<path d="M54.0567 39.9448C54.0567 38.1685 51.8458 35.2577 45.9477 39.2722L45.942 39.2762C44.4097 39.2333 42.8789 39.4007 41.3921 39.7736C38.6949 40.5808 35.3127 42.8418 36.1794 48.3242C37.1479 54.4433 39.6544 56.0764 40.9176 56.827C41.2394 57.018 41.3174 56.8606 41.4291 56.5052C41.7794 55.1841 42.03 53.8385 42.1787 52.4799C42.3993 51.1577 42.4994 49.8182 42.4777 48.4779C42.4777 47.884 42.4807 45.7202 45.4278 45.6953C47.0854 45.6819 46.4656 45.7478 48.2346 45.7478C48.4868 45.7478 48.7094 45.7363 48.9146 45.7182H48.9169C55.0252 45.7178 54.0567 41.7215 54.0567 39.9448Z" fill="#0C0C0C"/>
<path d="M46.5449 50.5348C46.8141 50.5348 47.0322 50.3166 47.0322 50.0475C47.0322 49.7784 46.8141 49.5602 46.5449 49.5602C46.2758 49.5602 46.0576 49.7784 46.0576 50.0475C46.0576 50.3166 46.2758 50.5348 46.5449 50.5348Z" fill="#0F1011"/>
<path d="M50.3896 50.2192C50.6588 50.2192 50.877 50.0011 50.877 49.7319C50.877 49.4628 50.6588 49.2446 50.3896 49.2446C50.1205 49.2446 49.9023 49.4628 49.9023 49.7319C49.9023 50.0011 50.1205 50.2192 50.3896 50.2192Z" fill="#0F1011"/>
<path d="M51.2337 48.6935H51.2306L49.9396 48.6773C49.8804 48.6747 49.8245 48.6492 49.7837 48.6063C49.7429 48.5633 49.7203 48.5062 49.7207 48.447C49.7211 48.3878 49.7444 48.331 49.7858 48.2886C49.8272 48.2462 49.8834 48.2214 49.9426 48.2196H49.9456L51.2367 48.2357C51.2959 48.2384 51.3518 48.2638 51.3926 48.3068C51.4334 48.3497 51.456 48.4068 51.4556 48.4661C51.4552 48.5253 51.4318 48.5821 51.3905 48.6245C51.3491 48.6669 51.2929 48.6916 51.2337 48.6935Z" fill="#0F1011"/>
<path d="M45.493 49.1646C45.4368 49.1649 45.3824 49.1443 45.3403 49.107C45.2982 49.0697 45.2713 49.0182 45.2648 48.9624C45.2582 48.9065 45.2724 48.8502 45.3047 48.8041C45.337 48.7581 45.3851 48.7255 45.4399 48.7127L46.7128 48.4063C46.7423 48.3985 46.7731 48.3967 46.8033 48.4009C46.8335 48.4052 46.8626 48.4154 46.8888 48.4311C46.9149 48.4467 46.9378 48.4674 46.9558 48.492C46.9739 48.5166 46.9869 48.5446 46.994 48.5742C47.0011 48.6039 47.0023 48.6347 46.9973 48.6648C46.9924 48.6949 46.9815 48.7237 46.9652 48.7495C46.949 48.7754 46.9278 48.7977 46.9028 48.8152C46.8778 48.8327 46.8496 48.8451 46.8198 48.8515L45.5469 49.1579C45.5292 49.1623 45.5112 49.1645 45.493 49.1646Z" fill="#0F1011"/>
<path d="M44.0099 51.2396C44.0361 51.5121 44.0078 51.7871 43.9267 52.0486C43.8457 52.3101 43.7135 52.5528 43.5378 52.7628C43.3621 52.9727 43.1464 53.1456 42.9033 53.2715C42.6602 53.3974 42.3945 53.4737 42.1216 53.496C41.8488 53.5182 41.5742 53.4861 41.3139 53.4013C41.0536 53.3166 40.8127 53.1809 40.6053 53.0023C40.3978 52.8236 40.228 52.6055 40.1055 52.3607C39.9831 52.1158 39.9106 51.849 39.8922 51.5759C39.8654 51.3046 39.8934 51.0308 39.9746 50.7705C40.0558 50.5103 40.1885 50.2691 40.3649 50.0613C40.5412 49.8534 40.7576 49.6832 41.0011 49.5607C41.2446 49.4382 41.5102 49.3659 41.7822 49.3482C43.2546 49.3021 43.9168 50.1025 44.0099 51.2396Z" fill="#DFDFDF"/>
<g opacity="0.15">
<path d="M48.708 52.7503C48.6677 52.7503 48.6288 52.7358 48.5983 52.7095C48.5679 52.6832 48.5478 52.6468 48.5419 52.607C48.5359 52.5672 48.5445 52.5265 48.5659 52.4925C48.5874 52.4584 48.6204 52.4332 48.6589 52.4214L49.6496 52.117L48.9565 50.5731C48.9389 50.5325 48.9379 50.4866 48.9539 50.4454C48.9698 50.4041 49.0014 50.3708 49.0418 50.3527C49.0821 50.3345 49.128 50.333 49.1694 50.3485C49.2109 50.3639 49.2446 50.3951 49.2632 50.4352L50.0347 52.1527C50.0444 52.1745 50.0494 52.1981 50.0494 52.222C50.0494 52.2458 50.0444 52.2695 50.0347 52.2913C50.0248 52.3129 50.0104 52.3323 49.9925 52.348C49.9746 52.3637 49.9536 52.3754 49.9308 52.3824L48.7577 52.7429C48.7416 52.7479 48.7248 52.7504 48.708 52.7503Z" fill="black"/>
</g>
<path d="M75.093 198.122L68.0801 197.288C68.3955 194.633 68.7527 191.445 68.7769 190.922C68.7769 190.956 68.7769 190.983 68.7769 191.004H75.8393C75.8373 191.216 75.8373 191.862 75.093 198.122Z" fill="#DFDFDF"/>
<path d="M43.5898 198.966L36.5273 198.943C36.5273 198.943 36.5509 191.65 36.5509 191.006H43.6133C43.6133 191.652 43.5898 198.966 43.5898 198.966Z" fill="#DFDFDF"/>
<path d="M65.4227 197.216L77.5327 194.357C69.6918 163.576 63.1123 132.157 56.7396 101.043L56.6498 101.069L56.3869 99.2768L30.8021 97.6965C30.8021 97.6965 29.806 110.226 29.8066 114.411C29.809 134.927 33.0718 169.037 34.6928 196.331L47.12 195.695C46.3888 169.227 44.4137 142.722 44.5556 116.247C51.9971 143.032 59.4183 170.103 65.4227 197.216Z" fill="#464646"/>
<path d="M52.1749 201.698C52.3648 201.697 52.5525 201.657 52.7263 201.58C52.9001 201.503 53.0562 201.392 53.1848 201.252C53.3134 201.112 53.4119 200.947 53.474 200.768C53.5361 200.589 53.5605 200.398 53.5457 200.209C53.5253 199.946 53.4303 199.695 53.2718 199.485C53.1134 199.275 52.8982 199.114 52.6515 199.022L44.4315 196.268C44.2723 196.215 44.1035 196.197 43.9368 196.216C43.7701 196.234 43.6094 196.289 43.4656 196.375C42.3355 197.159 40.9837 197.56 39.6089 197.518C38.538 197.442 37.51 197.067 36.6423 196.435C36.566 196.372 36.4736 196.333 36.3757 196.321C36.2779 196.309 36.1786 196.325 36.0896 196.367C36.0005 196.41 35.9253 196.476 35.8727 196.56C35.8201 196.643 35.7923 196.74 35.7925 196.838V200.858C35.7925 200.976 35.8159 201.094 35.8614 201.203C35.9069 201.313 35.9736 201.412 36.0576 201.496C36.1416 201.58 36.2413 201.646 36.351 201.691C36.4607 201.736 36.5782 201.759 36.6968 201.758L52.1749 201.698Z" fill="#454545"/>
<path d="M83.6979 201.698C83.8878 201.697 84.0755 201.657 84.2493 201.58C84.4231 201.503 84.5792 201.392 84.7079 201.252C84.8365 201.112 84.935 200.947 84.9971 200.768C85.0593 200.589 85.0837 200.398 85.069 200.209C85.0485 199.946 84.9534 199.695 84.795 199.485C84.6365 199.275 84.4214 199.114 84.1747 199.022L75.9544 196.268C75.7952 196.215 75.6265 196.197 75.4598 196.216C75.2931 196.234 75.1324 196.289 74.9886 196.375C73.8586 197.159 72.5067 197.56 71.1318 197.518C70.0611 197.442 69.0332 197.067 68.1656 196.435C68.0893 196.372 67.9968 196.333 67.8989 196.321C67.801 196.309 67.7017 196.325 67.6126 196.367C67.5235 196.409 67.4482 196.476 67.3956 196.56C67.343 196.643 67.3152 196.74 67.3154 196.838V200.858C67.3154 200.976 67.3388 201.094 67.3843 201.203C67.4298 201.313 67.4965 201.412 67.5805 201.496C67.6645 201.58 67.7643 201.646 67.874 201.691C67.9837 201.736 68.1012 201.759 68.2198 201.758L83.6979 201.698Z" fill="#454545"/>
<path d="M74.6689 66.7161C74.6689 66.7161 75.207 62.714 78.0475 63.2696C79.8396 63.621 88.4797 64.2664 88.5123 65.0651C88.5933 67.0409 80.6764 66.5577 79.7445 68.2752L74.6689 66.7161Z" fill="#DFDFDF"/>
<path d="M77.0171 63.2747C77.0171 63.2747 81.1644 62.4598 82.1165 62.8119C82.9593 63.1237 80.9784 64.3165 80.9784 64.3165L77.0171 63.2747Z" fill="#DFDFDF"/>
<path d="M13.8446 66.7161C13.8446 66.7161 13.3065 62.714 10.4661 63.2696C8.67393 63.621 0.0342485 64.2677 0.000617963 65.0651C-0.0804316 67.0409 7.83653 66.5577 8.76843 68.2752L13.8446 66.7161Z" fill="#DFDFDF"/>
<path d="M11.4967 63.2747C11.4967 63.2747 7.34935 62.4598 6.39727 62.8119C5.55449 63.1237 7.53532 64.3165 7.53532 64.3165L11.4967 63.2747Z" fill="#DFDFDF"/>
<path d="M50.0923 55.0375C50.0923 55.0375 48.3152 54.7012 47.0225 55.0375C47.0225 55.0375 47.1294 53.8574 48.5574 53.8574C49.9853 53.8574 50.0923 55.0375 50.0923 55.0375Z" fill="white"/>
<path d="M74.6561 64.3612L64.8831 79.0544L57.2153 64.6676L57.1396 64.7076C56.0971 62.8916 54.2138 61.7212 50.9752 61.5817C50.7633 61.5716 50.4236 61.5649 49.9864 61.5581C49.899 63.4078 38.4444 63.4011 38.2023 61.5144C34.967 61.5178 32.3136 62.5099 30.7767 64.0468C30.156 64.6598 29.6589 65.3864 29.3124 66.187L21.6446 79.389L13.2421 63.9896L6.80518 67.5023L18.329 88.6162C18.6404 89.1871 19.0981 89.6649 19.6552 90.0005C20.2122 90.3361 20.8484 90.5175 21.4987 90.5261H21.5475C22.1895 90.5261 22.8202 90.3575 23.3766 90.0371C23.933 89.7168 24.3955 89.2559 24.7178 88.7006L30.6556 78.477C31.3588 80.8711 31.9823 83.2461 31.9823 85.4328C31.9823 92.4985 28.7874 95.6632 29.0228 99.2885C29.3928 104.986 57.0808 103.64 58.4899 100.402C59.9427 97.0656 56.9933 95.0074 57.1245 84.0909C57.138 82.9364 57.2254 81.73 57.3455 80.5019L61.2997 87.9228C61.5981 88.4827 62.0366 88.9557 62.5725 89.2954C63.1085 89.635 63.7234 89.8298 64.3571 89.8606C64.417 89.8636 64.4765 89.8649 64.5357 89.8649C65.1399 89.8649 65.7347 89.7155 66.2672 89.43C66.7997 89.1446 67.2534 88.7319 67.588 88.2288L80.7617 68.4224L74.6561 64.3612Z" fill="#797979"/>
<path d="M49.9882 61.5581C49.9008 63.4078 48.8952 66.1285 45.7911 66.3337C41.6546 66.6061 38.4462 63.4011 38.2041 61.5144H38.2142C42.2868 61.5144 47.6139 61.5211 49.9882 61.5581Z" fill="#DFDFDF"/>
<path d="M351.064 199.847C357.689 197.765 364.118 195.044 369.975 187.43C371.177 185.87 372.306 183.871 371.648 182.004C371.152 180.598 369.718 179.698 368.261 179.468C367.718 179.388 367.168 179.373 366.622 179.423C366.619 179.423 366.616 179.425 366.615 179.423C365.776 179.51 364.946 179.675 364.136 179.916L363.904 179.984C360.038 181.098 356.356 182.784 352.976 184.988C352.669 185.186 352.306 185.273 351.945 185.235C351.584 185.197 351.246 185.036 350.986 184.779C350.726 184.521 350.56 184.182 350.514 183.817C350.469 183.452 350.546 183.082 350.734 182.767C351.079 182.195 351.481 181.661 351.932 181.173C352.598 180.467 353.327 179.825 354.111 179.257C355.153 178.486 356.264 177.798 357.352 177.095C361.395 174.485 365.225 171.55 368.806 168.319C371.362 166.011 373.861 163.449 375.076 160.204C375.634 158.712 375.888 156.991 375.222 155.545C374.123 153.17 371.012 152.505 368.467 152.998C364.008 153.864 360.446 157.178 357.287 160.481C354.667 163.226 351.732 166.265 347.968 166.434C347.326 166.494 346.681 166.363 346.113 166.056C345.039 165.397 344.763 163.869 345.146 162.656C345.528 161.444 346.414 160.475 347.269 159.544C352.236 154.14 357.125 148.519 360.351 141.898C363.577 135.277 365.006 127.459 362.764 120.429C362.107 118.373 361.12 116.374 359.579 114.881C358.039 113.388 355.878 112.451 353.763 112.737C350.882 113.122 348.712 115.586 347.252 118.133C342.235 126.867 342.541 137.57 341.128 147.575C340.732 150.376 340.158 153.249 338.512 155.554C338.36 155.776 338.163 155.962 337.935 156.1C336.581 156.895 335.365 155.292 334.857 153.932C332.85 148.55 332.348 142.395 328.755 137.94C327.383 136.244 325.443 134.827 323.28 134.841C320.639 134.859 318.378 137.096 317.607 139.657C316.837 142.219 317.298 145.001 318.123 147.544C319.656 152.261 322.405 156.498 325.64 160.222C327.347 162.189 329.277 164.175 329.789 166.74C329.945 167.612 329.88 168.51 329.598 169.349C329.316 170.188 328.827 170.94 328.178 171.534C327.875 171.802 327.522 172.005 327.139 172.132C326.757 172.259 326.353 172.306 325.952 172.272C325.086 172.191 324.301 171.743 323.544 171.307C323.227 171.124 322.908 170.938 322.588 170.756C321.326 170.027 320.064 169.298 318.801 168.568C315.59 166.711 311.715 164.814 308.372 166.413C306.666 167.23 305.548 168.837 305.022 170.682C304.552 172.355 304.552 174.129 305.022 175.803C306.019 179.284 312.295 188.97 314.884 191.468C317.909 194.384 328.395 206.97 351.064 199.847Z" fill="#C5C5C5"/>
</svg>
