<svg width="250" height="221" viewBox="0 0 250 221" fill="none" xmlns="http://www.w3.org/2000/svg">
<path d="M145.898 80.2144C145.898 80.2144 145.526 60.3238 163.509 60.3238C182.467 60.3238 178.956 46.8637 197.245 47.9623C209.606 48.7058 212.812 61.7612 219.92 63.6903C227.028 65.6193 233.721 67.9602 233.721 79.8379L145.898 80.2144Z" fill="white"/>
<path d="M184.757 179.505C184.757 179.505 184.482 164.831 197.749 164.831C211.736 164.831 209.145 154.901 222.637 155.712C231.757 156.26 234.121 165.892 239.367 167.316C244.612 168.739 249.548 170.466 249.548 179.229L184.757 179.505Z" fill="white"/>
<path d="M0.000518798 112.254C0.000518798 112.254 -0.329358 94.5812 15.6472 94.5812C32.4906 94.5812 29.3713 82.6226 45.6187 83.6002C56.5997 84.2606 59.4482 95.8598 65.7647 97.5736C72.0812 99.2875 78.0257 101.367 78.0257 111.92L0.000518798 112.254Z" fill="white"/>
<path opacity="0.1" d="M145.898 80.2144C145.898 80.2144 145.526 60.3238 163.509 60.3238C182.467 60.3238 178.956 46.8637 197.245 47.9623C209.606 48.7058 212.812 61.7612 219.92 63.6903C227.028 65.6193 233.721 67.9602 233.721 79.8379L145.898 80.2144Z" fill="#367CFF"/>
<path opacity="0.1" d="M184.757 179.505C184.757 179.505 184.482 164.831 197.749 164.831C211.736 164.831 209.145 154.901 222.637 155.712C231.757 156.26 234.121 165.892 239.367 167.316C244.612 168.739 249.548 170.466 249.548 179.229L184.757 179.505Z" fill="#367CFF"/>
<path opacity="0.1" d="M0.000518798 112.254C0.000518798 112.254 -0.329358 94.5812 15.6472 94.5812C32.4906 94.5812 29.3713 82.6226 45.6187 83.6002C56.5997 84.2606 59.4482 95.8598 65.7647 97.5736C72.0812 99.2875 78.0257 101.367 78.0257 111.92L0.000518798 112.254Z" fill="#367CFF"/>
<path d="M186.848 37.3383C186.709 37.1156 186.618 36.8671 186.578 36.6078C186.539 36.3486 186.553 36.084 186.619 35.8303C186.685 35.5765 186.802 35.3389 186.964 35.132C187.125 34.925 187.326 34.7531 187.556 34.6266C188.009 34.3972 188.533 34.3485 189.02 34.4903C189.508 34.632 189.924 34.9538 190.183 35.3904L191.561 37.6037L190.895 29.8248C190.752 28.8274 191.211 27.5139 192.339 27.4256C193.246 27.2941 193.985 26.0751 195.071 26.6112C195.081 26.6084 203.598 33.3192 203.732 34.2433L204.257 46.5567C204.827 50.4774 191.504 49.6916 191.504 49.6916L186.848 37.3383Z" fill="#FFC7B0"/>
<g opacity="0.1">
<path d="M186.848 37.3383C186.709 37.1156 186.618 36.8671 186.578 36.6078C186.539 36.3486 186.553 36.084 186.619 35.8303C186.685 35.5765 186.802 35.3389 186.964 35.132C187.125 34.925 187.326 34.7531 187.556 34.6266C188.009 34.3972 188.533 34.3485 189.02 34.4903C189.508 34.632 189.924 34.9538 190.183 35.3904L191.561 37.6037L190.895 29.8248C190.752 28.8274 191.211 27.5139 192.339 27.4256C193.246 27.2941 193.985 26.0751 195.071 26.6112C195.081 26.6084 203.598 33.3192 203.732 34.2433L204.257 46.5567C204.827 50.4774 191.504 49.6916 191.504 49.6916L186.848 37.3383Z" fill="#0C0C0C"/>
</g>
<path d="M95.7933 97.7406C95.7933 97.7406 95.0285 109.217 92.4465 113.379C85.0135 125.366 82.8601 138.851 90.3037 145.896C97.7473 152.941 145.225 153.04 148.822 136.836C151.85 123.194 145.351 121.727 143.771 110.474C143.055 105.382 141.087 94.7051 141.087 94.7051" fill="#0A0A0A"/>
<path d="M136.533 134.46C136.45 134.45 135.541 149.54 118.01 148.224C105.874 147.315 101.547 134.438 101.267 134.438C102.576 134.16 104.779 133.755 105.36 133.445C107.272 132.418 109.635 131.35 110.252 127.639C110.608 125.501 110.005 114.557 110.19 112.392L128.819 116.55C128.559 121.12 126.737 131.717 133.123 133.592C134.186 133.904 135.331 134.189 136.533 134.46Z" fill="#FFC7B0"/>
<path opacity="0.5" d="M129.082 129.263C128.79 128.323 128.602 127.354 128.522 126.372C128.317 124.133 128.358 121.878 128.643 119.647C124.857 119.136 121.29 117.573 118.348 115.136C118.002 116.414 116.1 121.996 116.627 123.21C117.621 125.505 122.3 129.263 129.082 129.263Z" fill="#0C0C0C"/>
<path d="M126.673 124.562C119.328 125.274 109.825 122.335 107.856 112.554L106.08 103.728C104.111 93.9474 107.653 84.9844 116.862 83.1305C126.072 81.2781 134.551 87.8208 136.519 97.6017L137.306 101.509C138.061 105.262 139.777 123.294 126.673 124.562Z" fill="#FFC7B0"/>
<path d="M131.897 112.865C129.511 114.078 126.788 114.462 124.159 113.955C124.068 113.938 123.974 113.947 123.888 113.981C123.802 114.015 123.728 114.073 123.673 114.149C123.619 114.224 123.587 114.313 123.582 114.405C123.576 114.498 123.597 114.59 123.643 114.671C124.426 116.052 126.285 118.411 129.474 117.45C131.533 116.828 132.312 114.71 132.6 113.399C132.62 113.309 132.613 113.214 132.581 113.127C132.549 113.04 132.493 112.964 132.419 112.908C132.345 112.852 132.257 112.818 132.164 112.811C132.072 112.803 131.979 112.822 131.897 112.865Z" fill="white"/>
<path d="M132.047 102.251C132.684 102.251 133.2 101.735 133.2 101.098C133.2 100.461 132.684 99.9451 132.047 99.9451C131.41 99.9451 130.894 100.461 130.894 101.098C130.894 101.735 131.41 102.251 132.047 102.251Z" fill="#0C0C0C"/>
<path d="M120.966 104.191C121.603 104.191 122.119 103.675 122.119 103.038C122.119 102.401 121.603 101.885 120.966 101.885C120.329 101.885 119.812 102.401 119.812 103.038C119.812 103.675 120.329 104.191 120.966 104.191Z" fill="#0C0C0C"/>
<path opacity="0.1" d="M122.004 111.745C123.213 111.601 124.107 110.766 124.001 109.879C123.895 108.992 122.83 108.391 121.621 108.535C120.412 108.679 119.518 109.515 119.624 110.401C119.73 111.288 120.796 111.89 122.004 111.745Z" fill="#0C0C0C"/>
<path opacity="0.1" d="M134.776 108.201C134.883 109.086 135.949 109.687 137.158 109.544C137.367 109.519 137.573 109.473 137.772 109.405C137.829 108.349 137.832 107.334 137.801 106.394C137.465 106.31 137.117 106.289 136.774 106.334C135.565 106.476 134.671 107.311 134.776 108.201Z" fill="#0C0C0C"/>
<path opacity="0.5" d="M129.435 110.937L129.453 110.934C129.827 110.856 130.195 110.758 130.558 110.639C131.098 110.458 131.804 110.161 131.708 109.672C131.596 109.115 128.858 103.409 128.547 102.761C128.519 102.704 128.471 102.661 128.411 102.64C128.352 102.619 128.287 102.623 128.23 102.65C128.173 102.677 128.13 102.726 128.109 102.785C128.088 102.845 128.092 102.91 128.119 102.967C129.287 105.397 131.167 109.391 131.242 109.767C131.183 109.942 130.286 110.283 129.36 110.47C129.299 110.481 129.244 110.515 129.208 110.566C129.172 110.617 129.158 110.68 129.168 110.741C129.177 110.802 129.211 110.857 129.261 110.894C129.311 110.931 129.374 110.947 129.435 110.938L129.435 110.937Z" fill="#0C0C0C"/>
<path d="M98.7321 106.896L106.988 105.284C113.225 102.676 114.994 91.8064 114.994 91.8064C114.994 91.8064 122.691 99.1364 141.087 94.7041C141.087 94.7041 137.091 69.0242 109.928 76.8191C101.17 79.3324 94.9663 88.2597 95.889 100.084C96.5355 108.37 98.7321 106.896 98.7321 106.896Z" fill="#0A0A0A"/>
<path d="M109.028 115.419C106.229 115.982 103.358 113.444 102.794 110.645C102.23 107.846 104.189 105.846 106.987 105.283L108.807 106.868L111.433 114.933L109.028 115.419Z" fill="#FFC7B0"/>
<path d="M130.531 98.2105C131.231 97.7152 132.05 97.4144 132.904 97.3388C133.333 97.298 133.765 97.322 134.187 97.4101C134.612 97.497 135.025 97.6369 135.416 97.8265L135.429 97.8322C135.472 97.8513 135.521 97.8527 135.565 97.8361C135.61 97.8196 135.646 97.7863 135.666 97.7435C135.686 97.7006 135.689 97.6516 135.673 97.6069C135.658 97.5622 135.625 97.5253 135.583 97.5041C135.169 97.2853 134.729 97.1197 134.273 97.0111C133.815 96.8996 133.342 96.8577 132.871 96.8867C131.917 96.9397 130.994 97.2472 130.199 97.7773C130.139 97.818 130.098 97.8807 130.085 97.9516C130.071 98.0226 130.086 98.096 130.127 98.1557C130.168 98.2154 130.23 98.2565 130.301 98.27C130.372 98.2835 130.446 98.2683 130.505 98.2276L130.512 98.223L130.531 98.2105Z" fill="#0C0C0C"/>
<path d="M122.989 99.2528C122.051 99.0666 121.081 99.1352 120.179 99.4516C119.733 99.6052 119.313 99.8248 118.932 100.103C118.553 100.378 118.21 100.699 117.911 101.06C117.879 101.095 117.863 101.142 117.866 101.19C117.868 101.237 117.889 101.282 117.925 101.314C117.96 101.346 118.006 101.363 118.054 101.361C118.101 101.359 118.146 101.339 118.179 101.304L118.189 101.294C118.477 100.969 118.805 100.682 119.165 100.439C119.521 100.196 119.912 100.008 120.324 99.8823C121.142 99.6256 122.014 99.5901 122.85 99.7793L122.871 99.7843C122.941 99.8013 123.015 99.7898 123.077 99.7522C123.138 99.7146 123.183 99.6541 123.2 99.5839C123.217 99.5138 123.205 99.4398 123.167 99.3781C123.13 99.3165 123.069 99.2723 122.999 99.2553L122.989 99.2528Z" fill="#0C0C0C"/>
<path d="M106.994 105.148C112.544 103.082 114.385 99.2496 114.953 96.3976C115.32 94.4955 115.286 92.5377 114.852 90.6497L114.68 90.6967C115.107 92.5602 115.14 94.4924 114.777 96.3694C114.217 99.1748 112.402 102.946 106.932 104.982L106.994 105.148Z" fill="#0C0C0C"/>
<path d="M43.8073 63.3964L40.163 51.7521C40.0829 51.4962 39.9504 51.2599 39.774 51.058C39.5975 50.8562 39.381 50.6933 39.1381 50.5797C38.8953 50.4662 38.6314 50.4044 38.3634 50.3984C38.0954 50.3924 37.829 50.4422 37.5813 50.5448C37.1299 50.7483 36.7702 51.1123 36.5718 51.5661C36.3735 52.0198 36.3508 52.5311 36.508 53.0007L37.2896 55.4976L31.2278 48.7735C30.567 48.014 29.2685 47.505 28.4673 48.3026C28.1384 48.5893 27.9162 48.979 27.8373 49.4081C27.7583 49.8373 27.827 50.2805 28.0324 50.6655C28.0236 50.6699 28.0153 50.6753 28.0078 50.6816C28.0029 50.6872 27.9984 50.6931 27.9942 50.6994L26.9754 49.5284C26.7865 49.3116 26.5516 49.1396 26.2879 49.0251C26.0241 48.9106 25.7381 48.8563 25.4507 48.8664C25.1633 48.8764 24.8818 48.9504 24.6266 49.0831C24.3715 49.2158 24.1492 49.4037 23.9759 49.6332C23.7102 49.9999 23.5785 50.4467 23.6029 50.8989C23.6273 51.3511 23.8062 51.7812 24.1098 52.1172L24.5434 52.6159C24.5349 52.6352 24.5298 52.6558 24.5284 52.6769C24.1572 52.4081 23.7026 52.2801 23.2457 52.3158C22.7889 52.3515 22.3596 52.5486 22.0347 52.8717C21.6897 53.2357 21.4946 53.7164 21.4884 54.2178C21.4822 54.7193 21.6653 55.2046 22.0012 55.577L23.0785 56.8146C23.0509 56.8079 23.0221 56.8078 22.9945 56.8144C22.9669 56.821 22.9413 56.834 22.9196 56.8523C22.8951 56.8755 22.8779 56.9054 22.8701 56.9382C22.4731 56.7908 22.0388 56.7779 21.6337 56.9014C21.2287 57.0249 20.8755 57.278 20.6283 57.6218C20.376 57.9883 20.2548 58.4292 20.2844 58.8731C20.3139 59.317 20.4925 59.738 20.7911 60.0677L29.8798 70.5102C31.1515 71.9707 32.8303 73.0184 34.7011 73.5189C36.5719 74.0194 38.5496 73.9499 40.3807 73.3195C41.9595 72.7755 43.2641 71.6373 44.0171 70.1468C44.7702 68.6563 44.9124 66.9309 44.4136 65.3372L43.8073 63.3964Z" fill="#FFC7B0"/>
<g opacity="0.2">
<path d="M33.9989 57.3511C33.9636 57.3817 33.9176 57.3972 33.871 57.3942C33.8243 57.3912 33.7807 57.37 33.7496 57.3351L27.9942 50.9331C27.9626 50.898 27.9462 50.8517 27.9487 50.8045C27.9512 50.7573 27.9724 50.713 28.0075 50.6814C28.0427 50.6498 28.0889 50.6335 28.1361 50.636C28.1833 50.6385 28.2276 50.6597 28.2592 50.6948L34.0153 57.0968C34.0469 57.1319 34.0633 57.1781 34.0608 57.2252C34.0583 57.2724 34.0372 57.3167 34.0021 57.3483L33.9989 57.3511Z" fill="#0C0C0C"/>
</g>
<g opacity="0.2">
<path d="M31.2454 59.9676C31.2101 59.9982 31.1641 60.0136 31.1175 60.0106C31.0708 60.0076 31.0272 59.9864 30.9961 59.9516L24.5731 52.8068C24.5415 52.7717 24.5251 52.7255 24.5276 52.6784C24.5301 52.6312 24.5512 52.5869 24.5863 52.5553C24.6221 52.5252 24.6681 52.5098 24.7149 52.5124C24.7616 52.5149 24.8057 52.5351 24.8381 52.5689L31.2618 59.7132C31.2934 59.7483 31.3098 59.7946 31.3073 59.8417C31.3048 59.8889 31.2837 59.9331 31.2486 59.9647L31.2454 59.9676Z" fill="#0C0C0C"/>
</g>
<g opacity="0.2">
<path d="M28.2796 62.8189C28.2442 62.8495 28.1982 62.8649 28.1515 62.8618C28.1049 62.8588 28.0613 62.8375 28.0302 62.8026L22.9068 57.1049C22.8752 57.0697 22.8588 57.0235 22.8613 56.9763C22.8638 56.9291 22.885 56.8848 22.9201 56.8532C22.9553 56.8216 23.0015 56.8052 23.0487 56.8077C23.0959 56.8103 23.1402 56.8314 23.1718 56.8666L28.2963 62.5664C28.3279 62.6015 28.3442 62.6478 28.3416 62.6949C28.3391 62.7421 28.3179 62.7863 28.2828 62.8179L28.2796 62.8189Z" fill="#0C0C0C"/>
</g>
<path d="M185.536 42.3231L173.871 98.6331L134.15 138.758L155.006 158.181L194.387 113.218L194.623 112.952C196.012 111.354 196.98 109.436 197.44 107.37L210.811 47.7764L185.536 42.3231Z" fill="#C28426"/>
<path d="M117.417 144.471C105.273 143.898 104.762 133.589 104.762 133.589C104.762 133.589 98.7439 133.978 94.7437 134.519C88.1943 135.405 83.8742 137.626 80.4357 141.064C77.2374 144.263 78.1448 154.241 78.1448 154.241L81.3548 221H154.651L158.117 154.608C158.117 154.608 162.054 146.183 155.362 139.102C150.508 133.968 137.978 133.589 132.934 133.589C132.851 133.589 133.957 145.25 117.417 144.471Z" fill="#C28426"/>
<path d="M60.3582 109.804L47.2251 62.8353L22.3906 70.0363L37.5725 120.603C38.2668 122.895 39.5851 124.949 41.3799 126.534L41.6293 126.752L81.631 161.913L99.7019 139.876L60.3582 109.804Z" fill="#C28426"/>
<path d="M188.37 28.2442L187.769 28.6538C186.242 29.6953 184.525 30.4258 182.716 30.8036C180.907 31.1815 179.042 31.1993 177.226 30.856C175.41 30.5128 173.679 29.8152 172.133 28.8031C170.587 27.7911 169.255 26.4843 168.214 24.9575L162.588 16.7074C162.513 16.5986 162.461 16.4762 162.434 16.3473C162.408 16.2183 162.406 16.0854 162.431 15.956C162.455 15.8266 162.505 15.7032 162.577 15.593C162.649 15.4829 162.742 15.388 162.851 15.3138L185.044 0.174334C185.264 0.0245045 185.534 -0.0319289 185.796 0.0174357C186.057 0.0668003 186.288 0.217924 186.438 0.437594L192.067 8.68915C193.108 10.2159 193.839 11.9328 194.216 13.7418C194.594 15.5508 194.612 17.4165 194.269 19.2324C193.925 21.0483 193.228 22.7788 192.216 24.325C191.203 25.8713 189.897 27.203 188.37 28.2442Z" fill="#307965"/>
<path d="M177.271 12.3573L180.642 14.2597C180.665 14.2726 180.691 14.2798 180.717 14.2807C180.743 14.2815 180.77 14.2758 180.793 14.2643L184.272 12.5654C184.299 12.5522 184.329 12.5468 184.359 12.55C184.39 12.5531 184.418 12.5645 184.442 12.583C184.466 12.6015 184.485 12.6263 184.495 12.6547C184.506 12.683 184.509 12.7138 184.503 12.7435L183.735 16.5374C183.73 16.5633 183.731 16.5902 183.739 16.6155C183.746 16.6409 183.759 16.6641 183.778 16.6831L186.468 19.4661C186.489 19.4879 186.504 19.5152 186.51 19.5449C186.517 19.5746 186.515 19.6056 186.505 19.6342C186.494 19.6628 186.476 19.688 186.452 19.7069C186.429 19.7258 186.4 19.7376 186.37 19.7411L182.524 20.1843C182.498 20.1873 182.473 20.1966 182.451 20.2115C182.429 20.2264 182.411 20.2464 182.399 20.2698L180.582 23.6897C180.568 23.7164 180.546 23.7387 180.52 23.7539C180.494 23.7691 180.464 23.7767 180.433 23.7757C180.403 23.7748 180.373 23.7654 180.348 23.7486C180.323 23.7319 180.303 23.7083 180.29 23.6807L178.681 20.1604C178.67 20.1363 178.653 20.1153 178.632 20.0991C178.611 20.0829 178.587 20.072 178.561 20.0674L174.749 19.3973C174.719 19.3921 174.691 19.3786 174.668 19.3583C174.646 19.338 174.629 19.3118 174.621 19.2826C174.612 19.2535 174.612 19.2225 174.62 19.1932C174.628 19.1639 174.645 19.1375 174.667 19.117L177.517 16.4986C177.536 16.4807 177.551 16.4584 177.56 16.4336C177.569 16.4088 177.571 16.3822 177.568 16.3561L177.027 12.5233C177.022 12.4928 177.026 12.4616 177.039 12.4333C177.051 12.4049 177.071 12.3807 177.096 12.3633C177.122 12.3459 177.152 12.3361 177.183 12.3351C177.214 12.334 177.244 12.3417 177.271 12.3573Z" fill="#FAFAFA"/>
<path d="M189.288 24.1913L186.473 26.11L185.903 26.4976L183.659 28.0294C183.659 28.0294 198.95 42.0043 198.221 58.9673L204.929 54.3921L205.499 54.0046L212.775 49.0418C196.715 43.5283 189.288 24.1913 189.288 24.1913Z" fill="#307965"/>
<path d="M214.755 43.6344L192.466 58.8361C191.866 59.2453 191.712 60.0636 192.121 60.6637L197.152 68.0395C197.561 68.6396 198.379 68.7943 198.979 68.385L221.267 53.1834C221.868 52.7741 222.022 51.9558 221.613 51.3557L216.582 43.9799C216.173 43.3798 215.355 43.2251 214.755 43.6344Z" fill="#307965"/>
<path d="M172.215 31.4557C171.138 32.1931 169.883 32.6302 168.581 32.7222C167.278 32.8142 165.975 32.5577 164.805 31.9791C163.634 31.4004 162.639 30.5206 161.921 29.4299C161.203 28.3392 160.789 27.0771 160.721 25.7732C160.652 24.4693 160.932 23.1708 161.532 22.011C162.132 20.8512 163.029 19.872 164.133 19.1741C165.236 18.4762 166.506 18.0848 167.811 18.04C169.116 17.9952 170.409 18.2987 171.558 18.9193C172.667 19.5182 173.604 20.3923 174.278 21.4577C174.952 22.523 175.34 23.7439 175.406 25.0028C175.473 26.2618 175.214 27.5166 174.655 28.6467C174.096 29.7767 173.256 30.744 172.215 31.4557ZM165.364 21.4454C164.503 22.0334 163.858 22.8868 163.527 23.8755C163.196 24.8641 163.198 25.9339 163.531 26.9217C163.865 27.9096 164.512 28.7613 165.374 29.3472C166.237 29.933 167.267 30.2208 168.308 30.1668C169.35 30.1128 170.344 29.7198 171.142 29.0478C171.939 28.3758 172.494 27.4617 172.724 26.4446C172.953 25.4276 172.844 24.3634 172.412 23.4143C171.981 22.4652 171.251 21.6832 170.334 21.1875C169.561 20.7714 168.689 20.5754 167.813 20.6209C166.937 20.6664 166.09 20.9516 165.364 21.4454Z" fill="#307965"/>
<path d="M197.101 14.4855C196.834 14.6672 196.556 14.8313 196.268 14.9768C194.527 15.856 192.509 16.0076 190.656 15.3984C188.803 14.7892 187.269 13.469 186.389 11.7283C185.51 9.9875 185.359 7.96878 185.968 6.11621C186.577 4.26363 187.897 2.72894 189.638 1.84975C191.304 1.0089 193.228 0.832959 195.018 1.3576C196.809 1.88224 198.334 3.06821 199.283 4.67512C200.232 6.28203 200.535 8.18966 200.129 10.0114C199.724 11.833 198.641 13.4325 197.101 14.4855ZM190.252 4.47095C189.495 4.98973 188.903 5.7157 188.547 6.56203C188.192 7.40835 188.087 8.3392 188.247 9.24325C188.406 10.1473 188.823 10.9863 189.447 11.6598C190.07 12.3333 190.875 12.8129 191.764 13.0412C192.653 13.2695 193.589 13.2368 194.461 12.947C195.332 12.6573 196.101 12.1228 196.676 11.4074C197.251 10.6919 197.608 9.82598 197.704 8.91301C197.8 8.00004 197.632 7.07873 197.218 6.25927C196.935 5.69915 196.544 5.20023 196.069 4.791C195.593 4.38177 195.042 4.07024 194.445 3.8742C193.849 3.67817 193.221 3.60147 192.595 3.64848C191.969 3.6955 191.359 3.8653 190.799 4.1482C190.61 4.24374 190.427 4.35155 190.252 4.47095Z" fill="#307965"/>
<path d="M195.56 37.2267C195.357 36.9481 195.251 36.6109 195.257 36.2663C195.264 35.9217 195.382 35.5887 195.596 35.3179C195.571 35.3044 195.503 35.2887 195.528 35.2467L194.342 35.8238C193.997 36.0015 193.598 36.048 193.221 35.9548C192.843 35.8615 192.513 35.6348 192.289 35.3165C192.079 34.9951 191.996 34.6071 192.056 34.2277C192.115 33.8484 192.314 33.5046 192.612 33.2632C192.598 33.2585 192.59 33.2425 192.576 33.2332L192.089 33.4705C191.762 33.6365 191.389 33.6847 191.031 33.6068C190.673 33.5289 190.353 33.3297 190.125 33.043C189.986 32.8603 189.889 32.6489 189.841 32.4242C189.793 32.1994 189.796 31.9669 189.849 31.7434C189.903 31.5199 190.005 31.311 190.148 31.1317C190.292 30.9525 190.474 30.8073 190.68 30.7068L191.805 30.1592C191.801 30.1539 191.793 30.1532 191.79 30.1468C191.787 30.1404 191.79 30.13 191.788 30.1218C191.446 30.2018 191.087 30.1634 190.77 30.0128C190.453 29.8622 190.197 29.6083 190.043 29.2929C189.592 28.5034 190.258 27.6039 190.985 27.2502L193.363 26.3133C193.73 26.1689 194.126 26.1174 194.518 26.1635C194.91 26.2095 195.284 26.3517 195.607 26.5773C198.408 28.5273 205.601 33.795 203.28 34.9247L197.565 37.7055C197.225 37.8599 196.844 37.8966 196.481 37.8099C196.117 37.7232 195.793 37.518 195.56 37.2267Z" fill="#FFC7B0"/>
<path d="M11.0645 143.286L8.41016 144.323L12.1541 153.902L14.8085 152.864L11.0645 143.286Z" fill="#367CFF"/>
<path d="M226.368 113.95L219.507 121.611L221.63 123.512L228.491 115.851L226.368 113.95Z" fill="#367CFF"/>
<path d="M194.912 148.238L193.203 150.519L201.434 156.685L203.143 154.403L194.912 148.238Z" fill="#0CBC8B"/>
<path d="M71.2113 66.7988L63.7214 73.8468L65.6745 75.9223L73.1644 68.8743L71.2113 66.7988Z" fill="#367CFF"/>
<path d="M154.17 54.8435L151.699 56.2639L156.825 65.1802L159.296 63.7598L154.17 54.8435Z" fill="#367CFF"/>
<path d="M53.3947 177.478L47.9062 186.175L50.3164 187.696L55.8048 178.999L53.3947 177.478Z" fill="#0CBC8B"/>
<path d="M191.493 198.376L186.897 207.576L189.447 208.85L194.043 199.65L191.493 198.376Z" fill="#0CBC8B"/>
<path d="M228.794 174.17L226.065 174.988L229.018 184.839L231.747 184.021L228.794 174.17Z" fill="#367CFF"/>
<path d="M29.1111 201.293L27.5237 203.661L36.0699 209.39L37.6573 207.021L29.1111 201.293Z" fill="#367CFF"/>
<path d="M120.359 32.6862L117.889 34.1066L123.014 43.0226L125.485 41.6022L120.359 32.6862Z" fill="#0CBC8B"/>
</svg>
